<svg xmlns="http://www.w3.org/2000/svg" width="20" height="20" viewBox="0 0 20 20">
  <g id="Group_32" data-name="Group 32" transform="translate(-50 -508)">
    <circle id="Ellipse_18" data-name="Ellipse 18" cx="10" cy="10" r="10" transform="translate(50 508)" fill="#dc3f3d"/>
    <g id="camera_1_" data-name="camera (1)" transform="translate(53.397 513.048)">
      <path id="Path_63" data-name="Path 63" d="M12.381,10.254a.825.825,0,0,1-.825.825h-9.9a.825.825,0,0,1-.825-.825V5.3a.825.825,0,0,1,.825-.825h.967a2.476,2.476,0,0,0,1.75-.726l.685-.683a.825.825,0,0,1,.582-.242H7.57a.825.825,0,0,1,.583.242l.684.684a2.476,2.476,0,0,0,1.752.726h.967a.825.825,0,0,1,.825.825Zm-10.73-6.6A1.651,1.651,0,0,0,0,5.3v4.952A1.651,1.651,0,0,0,1.651,11.9h9.9a1.651,1.651,0,0,0,1.651-1.651V5.3a1.651,1.651,0,0,0-1.651-1.651h-.967a1.651,1.651,0,0,1-1.167-.483l-.684-.684A1.651,1.651,0,0,0,7.571,2H5.636a1.651,1.651,0,0,0-1.167.483l-.684.684a1.651,1.651,0,0,1-1.167.484Z" transform="translate(0 -2)" fill="#fff"/>
      <path id="Path_64" data-name="Path 64" d="M6.952,9.952A2.064,2.064,0,1,1,9.016,7.889,2.064,2.064,0,0,1,6.952,9.952Zm0,.825A2.889,2.889,0,1,0,4.064,7.889a2.889,2.889,0,0,0,2.889,2.889ZM2.825,6.238a.413.413,0,1,1-.413-.413A.413.413,0,0,1,2.825,6.238Z" transform="translate(-0.349 -2.524)" fill="#fff"/>
    </g>
  </g>
</svg>
