<svg xmlns="http://www.w3.org/2000/svg" xmlns:xlink="http://www.w3.org/1999/xlink" width="56" height="56" viewBox="0 0 56 56">
  <defs>
    <clipPath id="clip-path">
      <rect id="Rectangle_24" data-name="Rectangle 24" width="56" height="56" fill="#008e3f"/>
    </clipPath>
  </defs>
  <g id="Group_11" data-name="Group 11" clip-path="url(#clip-path)">
    <path id="Path_26" data-name="Path 26" d="M28,56A28,28,0,1,0,0,28,28,28,0,0,0,28,56Z" fill="#ccefdc"/>
    <path id="Path_27" data-name="Path 27" d="M28,43.5c12.482,0,22.6-.448,22.6-1s-10.118-1-22.6-1-22.6.448-22.6,1S15.518,43.5,28,43.5Z" fill="#99e0b9"/>
    <path id="Path_28" data-name="Path 28" d="M13.6,15.2H38.8a2.433,2.433,0,0,1,2.4,2.4v2.7H13.6a2.55,2.55,0,1,1,0-5.1Z" fill="#006a2f"/>
    <path id="Path_29" data-name="Path 29" d="M14.2,16.6,35.7,8.8A1.82,1.82,0,0,1,38,9.9l4.9,13.4a1.82,1.82,0,0,1-1.1,2.3L20.3,33.4A1.82,1.82,0,0,1,18,32.3L13.1,18.9A1.745,1.745,0,0,1,14.2,16.6Z" fill="#f39d56"/>
    <path id="Path_30" data-name="Path 30" d="M15.5,16.1,37,8.2a1.82,1.82,0,0,1,2.3,1.1l4.9,13.4A1.82,1.82,0,0,1,43.1,25L21.6,32.8a1.82,1.82,0,0,1-2.3-1.1L14.4,18.3A1.845,1.845,0,0,1,15.5,16.1Z" fill="#fdf4d9"/>
    <path id="Path_31" data-name="Path 31" d="M19.783,14.468l-1.973.718L23.9,31.913l1.973-.718Z" fill="#f38522"/>
    <path id="Path_32" data-name="Path 32" d="M34.8,18.9l3.7-1.3a.807.807,0,0,1,.9.4l1.1,3.1a.807.807,0,0,1-.4.9l-3.7,1.3a.807.807,0,0,1-.9-.4l-1.1-3.1C34.2,19.4,34.4,19.1,34.8,18.9Z" fill="#f39d56"/>
    <path id="Path_33" data-name="Path 33" d="M11,20.3H42.6a2.263,2.263,0,0,1,2.3,2.3V40.2a2.263,2.263,0,0,1-2.3,2.3H13.7a2.582,2.582,0,0,1-2.6-2.6C11,39.9,11,20.3,11,20.3Z" fill="#00b14f"/>
    <path id="Path_34" data-name="Path 34" d="M37.9,27.8h5.9a1.324,1.324,0,0,1,1.3,1.3v4.7a1.324,1.324,0,0,1-1.3,1.3H37.9a3.585,3.585,0,0,1-3.6-3.6A3.672,3.672,0,0,1,37.9,27.8Z" fill="#008e3f"/>
    <path id="Path_35" data-name="Path 35" d="M38.8,27.8h6A1.216,1.216,0,0,1,46,29v4.9a1.216,1.216,0,0,1-1.2,1.2h-6a3.65,3.65,0,0,1,0-7.3Z" fill="#66d095"/>
    <path id="Path_36" data-name="Path 36" d="M38.8,33.4a2,2,0,1,0-2-2A2,2,0,0,0,38.8,33.4Z" fill="#fff"/>
    <path id="Path_37" data-name="Path 37" d="M11,17.7v2.6h2.6A2.647,2.647,0,0,1,11,17.7Z" fill="#00b14f"/>
  </g>
</svg>
