<svg xmlns="http://www.w3.org/2000/svg" width="13" height="13" viewBox="0 0 13 13">
  <g id="Group_2" data-name="Group 2" transform="translate(0 -0.286)">
    <path id="Path_2" data-name="Path 2" d="M6.5,13.286A6.5,6.5,0,1,0,0,6.786,6.5,6.5,0,0,0,6.5,13.286Z" transform="translate(0 0)" fill="#00aed6"/>
    <path id="Path_3" data-name="Path 3" d="M10.293,6.551a1.864,1.864,0,0,0-.495-1.2A1.4,1.4,0,0,0,8.714,4.9H4.6a.242.242,0,0,1-.1-.024.274.274,0,0,1-.088-.068.321.321,0,0,1-.059-.1.356.356,0,0,1-.02-.12A.3.3,0,0,1,4.6,4.27H8.769A1.643,1.643,0,0,0,8.491,3.4a1.307,1.307,0,0,0-.671-.516,9.125,9.125,0,0,0-3.67,0,1.716,1.716,0,0,0-.875.609,2.152,2.152,0,0,0-.427,1.071,17.362,17.362,0,0,0,0,4.47,2.228,2.228,0,0,0,.515,1.105,1.765,1.765,0,0,0,.968.574,15.892,15.892,0,0,0,4.538,0,1.559,1.559,0,0,0,.851-.559,1.973,1.973,0,0,0,.407-1.027A13.975,13.975,0,0,0,10.293,6.551ZM8.943,7.608v.28a.356.356,0,0,1-.02.12.321.321,0,0,1-.059.1.274.274,0,0,1-.088.068.235.235,0,0,1-.208,0,.274.274,0,0,1-.088-.068.321.321,0,0,1-.059-.1.355.355,0,0,1-.02-.12v-.28a.487.487,0,0,1-.125-.239A.538.538,0,0,1,8.29,7.09a.466.466,0,0,1,.15-.22.365.365,0,0,1,.463,0,.466.466,0,0,1,.15.22.538.538,0,0,1,.015.279A.487.487,0,0,1,8.943,7.608Z" transform="translate(0 0)" fill="#fff" fill-rule="evenodd"/>
  </g>
</svg>
