<svg xmlns="http://www.w3.org/2000/svg" xmlns:xlink="http://www.w3.org/1999/xlink" width="56" height="56" viewBox="0 0 56 56">
  <defs>
    <filter id="users-viewfinder-solid" x="10" y="14" width="36.179" height="29.943" filterUnits="userSpaceOnUse">
      <feOffset dy="1" input="SourceAlpha"/>
      <feGaussianBlur result="blur"/>
      <feFlood flood-opacity="0.502"/>
      <feComposite operator="in" in2="blur"/>
      <feComposite in="SourceGraphic"/>
    </filter>
  </defs>
  <g id="target" transform="translate(-1810 -2172)">
    <circle id="Ellipse_17" data-name="Ellipse 17" cx="28" cy="28" r="28" transform="translate(1810 2172)" fill="#99f6e4"/>
    <g transform="matrix(1, 0, 0, 1, 1810, 2172)" filter="url(#users-viewfinder-solid)">
      <path id="users-viewfinder-solid-2" data-name="users-viewfinder-solid" d="M2.713,2.713H7.688A1.357,1.357,0,1,0,7.688,0H1.809A1.807,1.807,0,0,0,0,1.809V7.688a1.357,1.357,0,0,0,2.713,0Zm7.224,9.949A2.713,2.713,0,1,0,7.224,9.949a2.713,2.713,0,0,0,2.713,2.713Zm-1.5,1.809a3.016,3.016,0,0,0-3.013,3.013,1.509,1.509,0,0,0,1.509,1.509h3.171a5.873,5.873,0,0,1,3.686-4.161,2.984,2.984,0,0,0-1.43-.362Zm20.8,4.522a1.509,1.509,0,0,0,1.509-1.509,3.012,3.012,0,0,0-3.013-3.013H23.816a2.968,2.968,0,0,0-1.43.362,5.873,5.873,0,0,1,3.686,4.161Zm-5.054,0a4.083,4.083,0,0,0-3.16-2.657,3.833,3.833,0,0,0-.678-.057H15.828a3.833,3.833,0,0,0-.678.057,4.083,4.083,0,0,0-3.16,2.657,4,4,0,0,0-.232,1.357,1.353,1.353,0,0,0,1.357,1.357h9.949a1.353,1.353,0,0,0,1.357-1.357A4,4,0,0,0,24.189,18.994Zm2.041-6.331a2.713,2.713,0,1,0-2.713-2.713,2.713,2.713,0,0,0,2.713,2.713Zm-4.522-1.809a3.618,3.618,0,1,0-3.618,3.618A3.618,3.618,0,0,0,21.707,10.854Zm6.783-8.14h4.975V7.688a1.357,1.357,0,1,0,2.713,0V1.809A1.807,1.807,0,0,0,34.37,0H28.491a1.357,1.357,0,0,0,0,2.713ZM2.713,26.229V21.255a1.357,1.357,0,1,0-2.713,0v5.879a1.807,1.807,0,0,0,1.809,1.809H7.688a1.357,1.357,0,1,0,0-2.713Zm25.777,0a1.357,1.357,0,0,0,0,2.713H34.37a1.807,1.807,0,0,0,1.809-1.809V21.255a1.357,1.357,0,1,0-2.713,0v4.975Z" transform="translate(10 14)" fill="#0f766e"/>
    </g>
  </g>
</svg>
